<svg width="136" height="136" viewBox="0 0 136 136" fill="none" xmlns="http://www.w3.org/2000/svg">
<path d="M55.3114 3.72119L58.3404 3.09159L60.1165 11.6362L57.0624 12.271C56.203 12.4497 55.4276 12.4324 54.7362 12.2192C54.0454 12.0088 53.4669 11.6198 53.0007 11.0522C52.5318 10.4852 52.2051 9.75809 52.0207 8.8708C51.8356 7.98074 51.8449 7.18086 52.0485 6.47117C52.2493 5.76205 52.6271 5.1714 53.1818 4.69919C53.7337 4.22757 54.4436 3.90157 55.3114 3.72119ZM56.8556 5.01497L55.7083 5.25346C55.1742 5.36446 54.7447 5.5524 54.4196 5.81728C54.0923 6.08551 53.8786 6.43898 53.7782 6.87766C53.6757 7.31971 53.6906 7.85921 53.823 8.49617C53.9543 9.12756 54.1547 9.62415 54.4243 9.98594C54.6911 10.3483 55.0264 10.5862 55.4301 10.6996C55.8338 10.813 56.3026 10.8142 56.8367 10.7032L57.9882 10.4639L56.8556 5.01497Z" fill="#5F5B5B"/>
<path d="M41.763 7.84505C42.3783 7.57168 42.9633 7.461 43.518 7.513C44.0713 7.56875 44.5694 7.77333 45.0124 8.12675C45.4566 8.48276 45.8188 8.9762 46.0991 9.60708C46.3724 10.2224 46.4929 10.8155 46.4605 11.3863C46.4281 11.9571 46.2528 12.4687 45.9346 12.9209C45.6138 13.3743 45.16 13.7314 44.5733 13.992C44.1786 14.1674 43.783 14.267 43.3864 14.2909C42.9883 14.3185 42.6061 14.2629 42.2398 14.1241C41.8709 13.9865 41.5303 13.7585 41.2179 13.4403C40.9067 13.1247 40.6381 12.7125 40.412 12.2036L40.2096 11.748L45.2606 9.50399L45.7173 10.5321L42.228 12.0823C42.3341 12.3212 42.48 12.5097 42.6658 12.6479C42.8515 12.7861 43.0596 12.8661 43.2901 12.8881C43.5191 12.9138 43.7544 12.873 43.9958 12.7658C44.2476 12.6539 44.445 12.4963 44.5878 12.2929C44.7292 12.0933 44.8111 11.872 44.8336 11.6288C44.8573 11.3882 44.818 11.1492 44.7156 10.9118L44.2813 9.93436C44.1499 9.63839 43.9817 9.40689 43.7769 9.23985C43.5696 9.07396 43.3387 8.97758 43.0843 8.95072C42.8299 8.92386 42.5638 8.97214 42.286 9.09556C42.1016 9.17745 41.9444 9.27838 41.8143 9.39836C41.6842 9.51834 41.5877 9.65447 41.5248 9.80677C41.4619 9.95906 41.4353 10.1232 41.4451 10.2991L39.8658 10.8796C39.7799 10.4763 39.7965 10.0834 39.9157 9.70097C40.0334 9.32225 40.2478 8.9721 40.5588 8.65052C40.8683 8.33269 41.2698 8.0642 41.763 7.84505Z" fill="#5F5B5B"/>
<path d="M32.6555 12.7975L37.75 19.8835L36.2761 20.9432L34.3607 18.279L34.3157 18.3113C34.3539 18.5008 34.365 18.7133 34.3489 18.9488C34.3321 19.1883 34.2602 19.4289 34.1331 19.6707C34.0054 19.9165 33.7928 20.1463 33.4952 20.3603C33.1077 20.6389 32.6772 20.7944 32.2037 20.8269C31.7319 20.8617 31.252 20.7466 30.7641 20.4816C30.2778 20.2189 29.8158 19.7831 29.378 19.1741C28.9518 18.5813 28.6876 18.012 28.5855 17.4661C28.4828 16.9241 28.5198 16.4304 28.6964 15.985C28.8724 15.5436 29.1622 15.1778 29.5659 14.8876C29.8519 14.6819 30.1292 14.5543 30.3979 14.5046C30.6643 14.4565 30.9123 14.4584 31.142 14.5102C31.3733 14.5643 31.5755 14.6411 31.7485 14.7407L31.8143 14.6934L31.2023 13.8422L32.6555 12.7975ZM33.1231 16.492C32.896 16.176 32.6539 15.9319 32.3971 15.7596C32.1403 15.5874 31.8816 15.4952 31.621 15.4831C31.3621 15.4734 31.1138 15.5539 30.8762 15.7247C30.6363 15.8972 30.4806 16.1088 30.4091 16.3597C30.3392 16.6129 30.3461 16.8878 30.4299 17.1844C30.5131 17.485 30.6658 17.7899 30.888 18.099C31.1086 18.4058 31.3453 18.645 31.5981 18.8166C31.851 18.9882 32.1077 19.08 32.3683 19.0921C32.6289 19.1042 32.8803 19.0232 33.1225 18.849C33.3624 18.6766 33.5198 18.4672 33.5946 18.2209C33.6672 17.9763 33.6635 17.706 33.5837 17.41C33.5039 17.114 33.3503 16.808 33.1231 16.492Z" fill="#5F5B5B"/>
<path d="M21.5194 26.0718L24.2893 28.6122L23.0623 29.9501L18.2385 25.5259L19.4165 24.2414L20.2928 25.045L20.3388 24.9948C20.156 24.6267 20.095 24.2372 20.1556 23.8264C20.2144 23.4177 20.4099 23.0323 20.7421 22.6701C21.0378 22.3477 21.3712 22.1312 21.7425 22.0206C22.1137 21.9101 22.4977 21.9096 22.8945 22.0191C23.2894 22.1307 23.6763 22.3583 24.0551 22.7019L27.1265 25.5188L25.8995 26.8567L23.0667 24.2586C22.7801 23.9996 22.4849 23.8696 22.1812 23.8686C21.8776 23.8677 21.6096 23.9938 21.3772 24.2472C21.2294 24.4084 21.1278 24.5927 21.0724 24.8002C21.0191 25.0096 21.0264 25.2245 21.0942 25.4447C21.1601 25.6671 21.3018 25.8761 21.5194 26.0718Z" fill="#5F5B5B"/>
<path d="M10.1004 32.5613C10.4012 32.056 10.7287 31.6641 11.0829 31.3857C11.4333 31.1082 11.79 30.9338 12.1532 30.8623C12.5165 30.7909 12.8646 30.8114 13.1978 30.9238L12.533 32.482C12.3946 32.4591 12.2482 32.4662 12.0939 32.5032C11.9396 32.5403 11.7866 32.6195 11.635 32.7409C11.4795 32.8632 11.3342 33.0379 11.1991 33.2649C10.9971 33.6042 10.9137 33.9332 10.9489 34.2517C10.9802 34.5712 11.1887 34.8457 11.5744 35.0753L12.6033 35.6879L12.6425 35.622C12.527 35.4606 12.4403 35.2702 12.3826 35.0506C12.3248 34.8311 12.3159 34.5878 12.3559 34.3206C12.3959 34.0535 12.5046 33.771 12.6819 33.4732C12.9333 33.0509 13.2598 32.7246 13.6615 32.4942C14.0641 32.2677 14.529 32.1725 15.0563 32.2087C15.5846 32.2488 16.16 32.4541 16.7825 32.8247C17.4196 33.204 17.89 33.6245 18.1937 34.0863C18.4973 34.5481 18.6529 35.0143 18.6604 35.485C18.6664 35.958 18.5466 36.4008 18.301 36.8134C18.1136 37.1283 17.9029 37.3599 17.6691 37.5084C17.4377 37.6583 17.2041 37.7507 16.9684 37.7856C16.7337 37.8244 16.5196 37.8342 16.3262 37.8149L16.2913 37.8734L17.236 38.4358L16.3139 39.9847L10.6347 36.6038C10.1563 36.319 9.82567 35.9635 9.64295 35.5373C9.46023 35.1112 9.41184 34.6426 9.49778 34.1317C9.57981 33.6218 9.78069 33.0983 10.1004 32.5613ZM13.5593 34.6651C13.4097 34.9165 13.3455 35.1659 13.3668 35.4134C13.3891 35.6647 13.4898 35.9065 13.6689 36.1388C13.849 36.3749 14.1039 36.5911 14.4334 36.7873C14.763 36.9835 15.0762 37.1071 15.3731 37.1582C15.6724 37.2108 15.9415 37.1891 16.1804 37.0933C16.4193 36.9975 16.6136 36.8238 16.7633 36.5724C16.9159 36.3161 16.9749 36.0586 16.9404 35.8C16.9083 35.5429 16.7971 35.2965 16.6068 35.0609C16.4164 34.8252 16.1614 34.6122 15.8416 34.4219C15.5169 34.2286 15.2093 34.1066 14.9188 34.056C14.6292 34.0092 14.3681 34.034 14.1356 34.1303C13.904 34.2305 13.7119 34.4088 13.5593 34.6651Z" fill="#5F5B5B"/>
<path d="M4.22602 45.0658C4.41753 44.5097 4.6583 44.0593 4.94833 43.7145C5.23475 43.3715 5.54848 43.128 5.88952 42.9841C6.23055 42.8401 6.5756 42.7892 6.92467 42.8313L6.59143 44.4923C6.45122 44.4981 6.30935 44.5349 6.16583 44.6026C6.0223 44.6704 5.8887 44.7791 5.76503 44.9288C5.63774 45.0803 5.53107 45.2809 5.44503 45.5307C5.31643 45.9041 5.30183 46.2431 5.40121 46.5477C5.49698 46.8541 5.75707 47.0804 6.18146 47.2266L7.31363 47.6166L7.33861 47.5441C7.1926 47.4096 7.06896 47.2408 6.96766 47.0377C6.86637 46.8345 6.80808 46.5981 6.7928 46.3284C6.77752 46.0588 6.82631 45.7601 6.93918 45.4324C7.09924 44.9677 7.3524 44.5817 7.69866 44.2743C8.04668 43.9705 8.48249 43.7825 9.00608 43.7105C9.53144 43.6421 10.1366 43.7258 10.8215 43.9617C11.5226 44.2032 12.0688 44.519 12.4602 44.9093C12.8517 45.2995 13.099 45.7242 13.2022 46.1834C13.3045 46.6453 13.2775 47.1033 13.1211 47.5572C13.0018 47.9037 12.8428 48.1734 12.6441 48.3664C12.4481 48.5603 12.2383 48.6984 12.0147 48.7806C11.7928 48.8664 11.5852 48.9196 11.3918 48.9402L11.3696 49.0046L12.4091 49.3627L11.8221 51.067L5.57304 48.9145C5.04657 48.7332 4.65047 48.4525 4.38473 48.0725C4.11899 47.6926 3.97612 47.2437 3.95612 46.726C3.93251 46.2101 4.02248 45.6567 4.22602 45.0658ZM8.04113 46.4204C7.94584 46.6971 7.93384 46.9543 8.00514 47.1922C8.07821 47.4337 8.22609 47.6499 8.44879 47.8408C8.67325 48.0353 8.96679 48.195 9.32941 48.3199C9.69202 48.4448 10.0239 48.502 10.3249 48.4915C10.6287 48.482 10.8878 48.406 11.1021 48.2635C11.3164 48.1209 11.4713 47.9114 11.5666 47.6347C11.6637 47.3527 11.669 47.0886 11.5825 46.8424C11.4987 46.5972 11.3396 46.3787 11.1053 46.1868C10.8709 45.9949 10.5778 45.8383 10.2259 45.7171C9.86867 45.5941 9.54266 45.5374 9.24788 45.547C8.95486 45.5603 8.70433 45.6377 8.49628 45.7794C8.28999 45.9247 8.13828 46.1384 8.04113 46.4204Z" fill="#5F5B5B"/>
<path d="M3.46259 58.8494C3.54751 58.1815 3.75588 57.6238 4.0877 57.1763C4.42198 56.7319 4.85502 56.4118 5.38681 56.216C5.92142 56.0205 6.53114 55.9663 7.21597 56.0534C7.88388 56.1383 8.45359 56.3424 8.92509 56.6659C9.39659 56.9893 9.74333 57.4042 9.96531 57.9107C10.1869 58.42 10.2573 58.9931 10.1763 59.63C10.1218 60.0584 10.0021 60.4484 9.81704 60.8C9.63446 61.1548 9.38894 61.4529 9.08045 61.6944C8.77161 61.9386 8.4002 62.1119 7.96621 62.2142C7.53505 62.3169 7.04328 62.3331 6.49091 62.2629L5.99631 62.2L6.69341 56.7172L7.80942 56.8591L7.32785 60.6468C7.58713 60.6797 7.82398 60.6526 8.0384 60.5653C8.25283 60.478 8.42913 60.3415 8.5673 60.1557C8.70793 59.9731 8.7949 59.7508 8.82823 59.4887C8.86298 59.2153 8.83039 58.9649 8.73044 58.7374C8.63295 58.5131 8.48605 58.3283 8.28973 58.1831C8.09624 58.0382 7.87144 57.948 7.61534 57.9126L6.55427 57.7777C6.233 57.7369 5.94788 57.7607 5.69892 57.8494C5.4496 57.9408 5.24755 58.0884 5.09278 58.2921C4.93802 58.4958 4.84146 58.7484 4.80312 59.0499C4.77768 59.25 4.78257 59.4368 4.8178 59.6102C4.85302 59.7837 4.91947 59.9368 5.01715 60.0695C5.11483 60.2022 5.24146 60.3099 5.39703 60.3927L5.07536 62.0443C4.68592 61.9088 4.3585 61.6911 4.09309 61.391C3.83014 61.0941 3.64169 60.7294 3.52772 60.2968C3.41622 59.8673 3.39451 59.3849 3.46259 58.8494Z" fill="#5F5B5B"/>
<path d="M3.03535 69.1317L9.57087 68.7712L9.6678 70.5285L8.52749 70.5914L8.53124 70.6594C8.94345 70.7562 9.26083 70.9393 9.48339 71.2087C9.70879 71.4779 9.83158 71.7955 9.85176 72.1614C9.85677 72.2522 9.8565 72.3504 9.85094 72.456C9.84538 72.5615 9.83487 72.6546 9.81939 72.7351L8.21104 72.8238C8.23188 72.7373 8.24808 72.6184 8.25964 72.4669C8.2712 72.3155 8.27354 72.1774 8.26666 72.0525C8.25195 71.7859 8.18066 71.5508 8.05278 71.3473C7.92789 71.1465 7.75997 70.9908 7.549 70.8801C7.3382 70.7722 7.09947 70.7256 6.83283 70.7403L3.13533 70.9443L3.03535 69.1317Z" fill="#5F5B5B"/>
<path d="M6.38816 88.2629C6.29665 87.9969 6.3121 87.7362 6.43451 87.4808C6.56054 87.2271 6.75652 87.0545 7.02247 86.963C7.28573 86.8724 7.54373 86.8888 7.79648 87.0122C8.05015 87.1382 8.22274 87.3342 8.31425 87.6001C8.40299 87.858 8.38661 88.116 8.26512 88.3741C8.14363 88.6323 7.95126 88.8066 7.688 88.8972C7.5107 88.9582 7.33246 88.9685 7.15329 88.928C6.97772 88.8892 6.82066 88.8126 6.6821 88.698C6.54622 88.5825 6.44824 88.4375 6.38816 88.2629Z" fill="#5F5B5B"/>
<path d="M15.4519 105.497L13.6061 103.014L20.61 97.8071L22.471 100.31C22.9948 101.015 23.3054 101.726 23.4029 102.443C23.5027 103.158 23.3933 103.846 23.0746 104.508C22.7576 105.172 22.2354 105.774 21.5081 106.315C20.7786 106.857 20.0491 107.185 19.3196 107.299C18.5918 107.416 17.897 107.322 17.2353 107.017C16.5752 106.715 15.9807 106.208 15.4519 105.497ZM15.9757 103.551L16.6749 104.492C17.0003 104.93 17.3516 105.24 17.7286 105.424C18.1097 105.608 18.5203 105.653 18.9605 105.559C19.4046 105.466 19.8877 105.226 20.4098 104.838C20.9274 104.453 21.2935 104.062 21.5083 103.665C21.7247 103.271 21.7994 102.866 21.7324 102.452C21.6654 102.039 21.4692 101.613 21.1438 101.175L20.4421 100.231L15.9757 103.551Z" fill="#5F5B5B"/>
<path d="M24.8942 116.052C24.3872 115.609 24.0407 115.125 23.8544 114.599C23.6722 114.074 23.6482 113.536 23.7823 112.986C23.9184 112.433 24.2136 111.897 24.6679 111.377C25.1111 110.87 25.5984 110.511 26.1298 110.3C26.6613 110.089 27.1991 110.033 27.7433 110.132C28.2896 110.232 28.8044 110.493 29.2878 110.916C29.6129 111.2 29.8698 111.517 30.0583 111.867C30.2509 112.216 30.3613 112.586 30.3896 112.977C30.4199 113.37 30.3565 113.774 30.1993 114.192C30.0439 114.607 29.783 115.024 29.4166 115.443L29.0884 115.819L24.9273 112.181L25.6677 111.334L28.5423 113.847C28.7143 113.65 28.824 113.438 28.8712 113.212C28.9184 112.985 28.9034 112.763 28.8263 112.544C28.7533 112.326 28.6173 112.13 28.4184 111.956C28.2109 111.774 27.9849 111.662 27.7404 111.618C27.4998 111.573 27.2645 111.592 27.0344 111.674C26.8062 111.754 26.606 111.89 26.4337 112.083L25.7297 112.888C25.5166 113.132 25.3773 113.382 25.312 113.638C25.2488 113.896 25.2585 114.146 25.3412 114.388C25.4239 114.63 25.5796 114.851 25.8085 115.051C25.9604 115.184 26.1181 115.284 26.2817 115.352C26.4453 115.419 26.6094 115.449 26.774 115.442C26.9386 115.435 27.0987 115.39 27.2542 115.307L28.4453 116.496C28.1156 116.744 27.7522 116.894 27.3551 116.947C26.962 116.999 26.5542 116.952 26.1316 116.805C25.713 116.658 25.3005 116.407 24.8942 116.052Z" fill="#5F5B5B"/>
<path d="M41.7191 119.506L36.5123 124.085L34.7303 123.081L35.9498 116.255L37.6205 117.197L36.5058 121.944L36.5652 121.977L40.0448 118.563L41.7191 119.506Z" fill="#5F5B5B"/>
<path d="M47.9066 129.155C47.2649 128.951 46.754 128.646 46.3737 128.239C45.9969 127.83 45.7602 127.346 45.6635 126.788C45.5677 126.227 45.6243 125.617 45.8335 124.959C46.0376 124.318 46.3412 123.794 46.7444 123.389C47.1475 122.983 47.6182 122.717 48.1564 122.59C48.6974 122.464 49.2737 122.498 49.8856 122.693C50.2971 122.824 50.6591 123.012 50.9716 123.257C51.2876 123.501 51.5366 123.796 51.7184 124.143C51.9029 124.491 52.0063 124.887 52.0287 125.333C52.0519 125.775 51.9791 126.262 51.8104 126.793L51.6593 127.268L46.3922 125.593L46.7331 124.521L50.3718 125.678C50.451 125.429 50.467 125.191 50.4198 124.964C50.3726 124.738 50.2702 124.54 50.1124 124.37C49.9582 124.199 49.7552 124.073 49.5034 123.993C49.2408 123.91 48.9886 123.897 48.7468 123.954C48.5086 124.009 48.3003 124.12 48.122 124.287C47.9446 124.451 47.8154 124.656 47.7343 124.902L47.4102 125.921C47.3121 126.23 47.2841 126.515 47.3264 126.775C47.3713 127.037 47.48 127.262 47.6525 127.451C47.8249 127.64 48.056 127.781 48.3456 127.873C48.5379 127.934 48.7225 127.963 48.8994 127.96C49.0764 127.956 49.2389 127.919 49.387 127.847C49.5352 127.774 49.664 127.669 49.7735 127.531L51.34 128.146C51.1365 128.504 50.8632 128.787 50.5202 128.994C50.1807 129.199 49.788 129.318 49.3419 129.353C48.8994 129.385 48.421 129.319 47.9066 129.155Z" fill="#5F5B5B"/>
<path d="M60.8995 123.011L59.7318 131.66L57.9328 131.417L59.1005 122.768L60.8995 123.011Z" fill="#5F5B5B"/>
<path d="M70.1178 132.261C69.4563 132.287 68.8788 132.169 68.3851 131.907C67.8942 131.642 67.5081 131.262 67.227 130.767C66.9458 130.269 66.792 129.685 66.7655 129.015C66.7388 128.34 66.8461 127.744 67.0873 127.229C67.3284 126.71 67.6832 126.301 68.1519 126.001C68.6233 125.698 69.1896 125.534 69.8511 125.507C70.5125 125.481 71.0887 125.601 71.5796 125.866C72.0733 126.128 72.4607 126.508 72.742 127.005C73.0231 127.5 73.177 128.086 73.2037 128.761C73.2301 129.431 73.1228 130.025 72.8817 130.544C72.6405 131.059 72.2842 131.469 71.8128 131.772C71.3442 132.072 70.7792 132.235 70.1178 132.261ZM70.0708 130.855C70.3717 130.843 70.6195 130.748 70.8144 130.57C71.0091 130.389 71.1516 130.147 71.2421 129.845C71.3353 129.543 71.3744 129.202 71.3594 128.821C71.3444 128.441 71.2785 128.104 71.1617 127.81C71.0477 127.516 70.8865 127.286 70.6782 127.121C70.4698 126.956 70.2151 126.879 69.9142 126.891C69.6105 126.903 69.3584 127 69.158 127.181C68.9605 127.362 68.8151 127.604 68.7218 127.906C68.6314 128.208 68.5937 128.55 68.6087 128.93C68.6238 129.31 68.6882 129.648 68.8022 129.942C68.919 130.235 69.083 130.465 69.2942 130.63C69.5082 130.792 69.767 130.867 70.0708 130.855Z" fill="#5F5B5B"/>
<path d="M80.998 133.414L78.8175 124.682L80.5539 124.249L80.8203 125.315L80.8988 125.296C80.9333 125.106 81.0016 124.904 81.1036 124.691C81.2077 124.475 81.3635 124.278 81.5709 124.1C81.7804 123.919 82.063 123.784 82.4185 123.695C82.8816 123.58 83.3391 123.594 83.7911 123.739C84.2423 123.881 84.6457 124.165 85.0011 124.592C85.3558 125.016 85.6241 125.592 85.8058 126.319C85.9827 127.028 86.0177 127.654 85.9107 128.199C85.8058 128.741 85.589 129.186 85.2603 129.534C84.9336 129.879 84.5291 130.112 84.0467 130.233C83.705 130.318 83.4001 130.334 83.132 130.281C82.8668 130.227 82.637 130.134 82.4427 130.001C82.2478 129.865 82.0883 129.719 81.9643 129.562L81.9106 129.576L82.7593 132.974L80.998 133.414ZM81.3344 127.427C81.4287 127.805 81.5634 128.121 81.7383 128.376C81.9132 128.631 82.1196 128.812 82.3572 128.92C82.5942 129.024 82.8547 129.041 83.1386 128.971C83.4252 128.899 83.6482 128.76 83.8074 128.553C83.9659 128.344 84.0611 128.086 84.0928 127.779C84.1267 127.469 84.0975 127.129 84.0052 126.76C83.9137 126.393 83.7822 126.084 83.6107 125.831C83.4392 125.578 83.2346 125.398 82.9969 125.29C82.7592 125.183 82.4957 125.165 82.2063 125.237C81.9196 125.309 81.696 125.445 81.5354 125.646C81.3776 125.847 81.281 126.099 81.2458 126.404C81.2106 126.708 81.2401 127.049 81.3344 127.427Z" fill="#5F5B5B"/>
<path d="M95.8646 125.959C95.2583 126.252 94.6771 126.382 94.1211 126.347C93.5663 126.309 93.0619 126.121 92.6079 125.781C92.1526 125.44 91.7748 124.958 91.4746 124.336C91.1817 123.73 91.0424 123.141 91.0566 122.57C91.0707 121.998 91.2296 121.481 91.5333 121.019C91.8395 120.556 92.2817 120.184 92.8598 119.905C93.2486 119.717 93.6409 119.605 94.0365 119.569C94.4335 119.528 94.8173 119.572 95.1878 119.699C95.5609 119.825 95.9087 120.041 96.231 120.35C96.5521 120.655 96.8337 121.059 97.0759 121.56L97.2928 122.009L92.3159 124.413L91.8266 123.4L95.2648 121.739C95.1511 121.504 94.9992 121.32 94.8092 121.188C94.6191 121.056 94.4085 120.982 94.1775 120.968C93.9478 120.949 93.7139 120.997 93.476 121.112C93.2279 121.232 93.0357 121.396 92.8995 121.604C92.7645 121.808 92.6897 122.032 92.6749 122.275C92.6589 122.517 92.7058 122.754 92.8157 122.988L93.2809 123.951C93.4218 124.243 93.5972 124.469 93.8072 124.63C94.0198 124.789 94.2536 124.878 94.5088 124.896C94.7639 124.915 95.0283 124.858 95.302 124.726C95.4837 124.638 95.6376 124.533 95.7638 124.409C95.89 124.284 95.9821 124.145 96.0402 123.991C96.0982 123.837 96.1195 123.672 96.1041 123.496L97.6641 122.866C97.7629 123.266 97.7587 123.659 97.6518 124.046C97.5462 124.428 97.3431 124.785 97.0425 125.116C96.7433 125.443 96.3506 125.725 95.8646 125.959Z" fill="#5F5B5B"/>
<path d="M104.718 120.713L100.854 115.43L102.274 114.391L102.949 115.313L103.004 115.273C102.86 114.875 102.841 114.509 102.945 114.175C103.048 113.84 103.247 113.563 103.543 113.347C103.617 113.293 103.699 113.24 103.791 113.187C103.882 113.134 103.966 113.093 104.042 113.062L104.993 114.362C104.909 114.391 104.8 114.443 104.667 114.515C104.534 114.588 104.417 114.662 104.316 114.735C104.1 114.893 103.942 115.081 103.841 115.299C103.741 115.513 103.702 115.739 103.724 115.976C103.748 116.212 103.839 116.437 103.997 116.653L106.183 119.642L104.718 120.713Z" fill="#5F5B5B"/>
<path d="M118.931 107.475C118.757 107.697 118.53 107.826 118.25 107.863C117.968 107.895 117.717 107.825 117.495 107.652C117.276 107.48 117.149 107.255 117.114 106.976C117.082 106.695 117.152 106.443 117.325 106.221C117.493 106.007 117.718 105.88 118.001 105.841C118.283 105.802 118.535 105.868 118.754 106.04C118.902 106.155 119.007 106.299 119.071 106.471C119.134 106.639 119.156 106.813 119.135 106.992C119.112 107.168 119.044 107.33 118.931 107.475Z" fill="#5F5B5B"/>
<path d="M119.903 88.3449L127.96 91.6997L127.251 93.4031L119.194 90.0483L119.903 88.3449Z" fill="#5F5B5B"/>
<path d="M127.122 82.1346L130.814 82.9636L130.417 84.7349L124.03 83.3008L124.409 81.6127L125.536 81.8657L125.553 81.7909C125.213 81.5661 124.973 81.2632 124.831 80.882C124.687 80.5002 124.668 80.0723 124.774 79.5983C124.874 79.1548 125.058 78.7899 125.326 78.5036C125.594 78.2173 125.929 78.0232 126.33 77.9211C126.729 77.8185 127.176 77.8229 127.672 77.9343L131.739 78.8474L131.341 80.6186L127.591 79.7765C127.2 79.6859 126.873 79.7173 126.609 79.8704C126.341 80.023 126.168 80.2767 126.088 80.6315C126.035 80.8699 126.039 81.092 126.1 81.298C126.162 81.5012 126.28 81.6762 126.454 81.8229C126.626 81.9663 126.848 82.0702 127.122 82.1346Z" fill="#5F5B5B"/>
<path d="M128.895 69.748L132.679 69.8072L132.65 71.6223L126.106 71.52L126.133 69.7901L127.287 69.8081L127.289 69.7314C126.91 69.5806 126.613 69.333 126.397 68.9887C126.178 68.6443 126.072 68.2293 126.08 67.7435C126.087 67.289 126.192 66.8943 126.396 66.5594C126.6 66.2245 126.889 65.9662 127.261 65.7845C127.63 65.6027 128.069 65.5158 128.578 65.5238L132.745 65.5889L132.716 67.404L128.873 67.344C128.473 67.3349 128.158 67.4322 127.931 67.6361C127.7 67.8399 127.582 68.1236 127.577 68.4872C127.573 68.7315 127.622 68.9482 127.724 69.1373C127.826 69.3236 127.977 69.4708 128.177 69.5791C128.375 69.6845 128.614 69.7408 128.895 69.748Z" fill="#5F5B5B"/>
<path d="M131.733 55.4012C131.858 56.0513 131.827 56.64 131.642 57.1673C131.454 57.6923 131.136 58.1309 130.689 58.4828C130.238 58.8354 129.684 59.0748 129.026 59.2012C128.362 59.3286 127.757 59.3117 127.211 59.1503C126.662 58.9895 126.204 58.6998 125.838 58.2813C125.468 57.8606 125.22 57.3251 125.096 56.6751C124.971 56.025 125.003 55.4374 125.191 54.9124C125.376 54.3851 125.694 53.9452 126.144 53.5926C126.591 53.2406 127.147 53.0009 127.811 52.8735C128.47 52.7471 129.073 52.7644 129.622 52.9252C130.168 53.0865 130.626 53.3776 130.996 53.7984C131.362 54.2169 131.608 54.7511 131.733 55.4012ZM130.35 55.6579C130.294 55.3622 130.162 55.1313 129.957 54.9653C129.749 54.7999 129.489 54.6951 129.176 54.6509C128.864 54.6039 128.52 54.6162 128.146 54.688C127.773 54.7597 127.449 54.8754 127.176 55.0348C126.902 55.1915 126.699 55.3852 126.567 55.6159C126.435 55.8467 126.397 56.1099 126.454 56.4057C126.511 56.7042 126.645 56.939 126.854 57.11C127.063 57.2782 127.323 57.3858 127.636 57.4328C127.948 57.477 128.291 57.4632 128.665 57.3915C129.039 57.3197 129.363 57.2055 129.637 57.0489C129.91 56.8894 130.112 56.6929 130.244 56.4594C130.372 56.2236 130.408 55.9564 130.35 55.6579Z" fill="#5F5B5B"/>
<path d="M120.591 42.3003L127.513 41.8946L128.3 43.7827L123.138 48.4129L122.401 46.6429L126.201 43.5865L126.174 43.5236L121.33 44.0743L120.591 42.3003Z" fill="#5F5B5B"/>
<path d="M122.278 31.8262C122.511 32.1727 122.659 32.5219 122.721 32.8738C122.78 33.2274 122.744 33.5632 122.613 33.8813C122.477 34.1986 122.23 34.4778 121.872 34.7188C121.57 34.9218 121.279 35.0369 121 35.0641C120.72 35.0913 120.454 35.0514 120.2 34.9445C119.947 34.8376 119.707 34.6842 119.48 34.4843C119.251 34.2819 119.033 34.0551 118.827 33.8039C118.581 33.5102 118.379 33.2763 118.221 33.102C118.06 32.9294 117.921 32.8192 117.804 32.7717C117.686 32.7241 117.569 32.7392 117.454 32.8169L117.433 32.8311C117.209 32.9818 117.083 33.1691 117.056 33.393C117.027 33.6145 117.099 33.8537 117.271 34.1106C117.454 34.3817 117.659 34.5569 117.887 34.6364C118.113 34.7173 118.333 34.7235 118.547 34.6548L119.371 36.124C118.993 36.2753 118.614 36.3281 118.234 36.2825C117.852 36.2384 117.486 36.0961 117.136 35.8557C116.782 35.6145 116.459 35.2771 116.167 34.8434C115.964 34.5416 115.805 34.2291 115.69 33.9058C115.574 33.58 115.518 33.26 115.522 32.9456C115.525 32.6288 115.601 32.3295 115.75 32.0476C115.897 31.7672 116.132 31.5184 116.455 31.3012L120.118 28.8368L121.079 30.2652L120.326 30.7719L120.354 30.8143C120.583 30.7874 120.811 30.8033 121.039 30.8622C121.264 30.9228 121.483 31.031 121.694 31.1869C121.902 31.3444 122.097 31.5575 122.278 31.8262ZM120.948 32.0942C120.799 31.8726 120.624 31.7063 120.422 31.5953C120.219 31.4858 120.009 31.4335 119.793 31.4384C119.577 31.4432 119.374 31.5099 119.183 31.6383L118.606 32.026C118.669 32.0526 118.741 32.0984 118.822 32.1634C118.9 32.2277 118.983 32.3034 119.072 32.3905C119.16 32.4791 119.245 32.5686 119.33 32.6589C119.412 32.7507 119.487 32.8339 119.555 32.9085C119.699 33.0678 119.845 33.1945 119.99 33.2884C120.135 33.3823 120.281 33.4333 120.427 33.4414C120.57 33.451 120.713 33.4083 120.854 33.3131C121.059 33.1751 121.166 32.9954 121.174 32.774C121.179 32.5518 121.104 32.3252 120.948 32.0942Z" fill="#5F5B5B"/>
<path d="M108.704 25.697L109.687 24.7518L112.419 27.5928L111.437 28.5381L108.704 25.697ZM109.686 28.9801L108.428 27.6717L112.826 23.4417C112.947 23.3255 113.023 23.2165 113.055 23.1146C113.085 23.0148 113.082 22.9193 113.046 22.8281C113.007 22.735 112.946 22.6444 112.861 22.5563C112.802 22.4949 112.738 22.4384 112.669 22.3868C112.597 22.3372 112.543 22.299 112.505 22.2721L113.281 21.1299C113.364 21.1758 113.476 21.2453 113.617 21.3384C113.76 21.4296 113.916 21.5572 114.086 21.7213C114.402 22.0248 114.625 22.3416 114.758 22.6717C114.888 22.9997 114.915 23.3267 114.838 23.6527C114.761 23.9787 114.567 24.2894 114.256 24.5847L109.686 28.9801Z" fill="#5F5B5B"/>
<path d="M106.054 14.7716C106.591 15.158 106.974 15.6063 107.202 16.1166C107.426 16.6275 107.496 17.1646 107.413 17.7277C107.329 18.2932 107.091 18.8481 106.699 19.3925C106.304 19.9415 105.853 20.345 105.346 20.603C104.837 20.8633 104.305 20.9675 103.751 20.9156C103.193 20.8643 102.646 20.6455 102.108 20.2591C101.571 19.8727 101.19 19.424 100.966 18.9131C100.738 18.4028 100.667 17.865 100.751 17.2995C100.834 16.7363 101.073 16.1803 101.468 15.6313C101.859 15.0869 102.309 14.6846 102.818 14.4243C103.326 14.1663 103.858 14.0629 104.416 14.1141C104.97 14.166 105.516 14.3852 106.054 14.7716ZM105.226 15.9084C104.981 15.7326 104.727 15.6551 104.464 15.6757C104.199 15.6987 103.938 15.8014 103.681 15.9839C103.421 16.1647 103.181 16.4097 102.958 16.7188C102.736 17.0279 102.581 17.3342 102.492 17.6378C102.401 17.9397 102.387 18.2198 102.449 18.4783C102.512 18.7367 102.665 18.9538 102.91 19.1296C103.157 19.3071 103.415 19.386 103.684 19.3663C103.952 19.345 104.215 19.244 104.474 19.0631C104.732 18.8806 104.971 18.6348 105.194 18.3257C105.416 18.0167 105.572 17.7112 105.664 17.4093C105.752 17.1057 105.764 16.8239 105.699 16.5638C105.63 16.3043 105.473 16.0859 105.226 15.9084Z" fill="#5F5B5B"/>
<path d="M97.1976 9.47979L94.3991 15.3969L92.8082 14.6444L93.2964 13.612L93.2348 13.5829C92.9532 13.8991 92.641 14.0908 92.2981 14.1581C91.954 14.2279 91.6163 14.1844 91.285 14.0278C91.2028 13.9889 91.1166 13.9418 91.0264 13.8866C90.9363 13.8314 90.8595 13.7778 90.7961 13.7258L91.4848 12.2697C91.5509 12.3292 91.6477 12.4002 91.7753 12.4825C91.903 12.5649 92.0233 12.6328 92.1363 12.6862C92.3777 12.8004 92.6183 12.8498 92.8581 12.8344C93.0942 12.8203 93.3112 12.7469 93.5091 12.6142C93.7044 12.4803 93.8591 12.2927 93.9733 12.0513L95.5565 8.70366L97.1976 9.47979Z" fill="#5F5B5B"/>
<path d="M78.7815 3.3078C79.0589 3.35413 79.2807 3.49197 79.4469 3.72135C79.6099 3.95305 79.6682 4.20761 79.6218 4.48502C79.576 4.75962 79.4386 4.97862 79.2097 5.14201C78.978 5.30494 78.7234 5.36324 78.446 5.31691C78.177 5.27199 77.958 5.13461 77.789 4.90477C77.62 4.67493 77.5585 4.42271 77.6043 4.1481C77.6352 3.96316 77.7111 3.80159 77.8321 3.66338C77.9499 3.52751 78.0921 3.42598 78.2589 3.35877C78.4252 3.29438 78.5994 3.27738 78.7815 3.3078Z" fill="#5F5B5B"/>
</svg>
